<svg width="161" height="28" viewBox="0 0 161 28" fill="none" xmlns="http://www.w3.org/2000/svg">
<path d="M8.70115 27.1529C8.17781 27.1529 7.91614 26.9785 7.91614 26.6296V26.5175C7.91614 26.2932 8.15289 25.9692 8.62639 25.5455C9.12481 25.097 9.37402 24.5985 9.37402 24.0503V2.63074H5.29945C4.70134 2.63074 4.178 2.97963 3.72943 3.67742C3.30577 4.37521 2.93196 5.07299 2.60799 5.77078C2.28401 6.46856 1.94758 6.81746 1.59869 6.81746H1.15011C0.651693 6.81746 0.439865 6.53087 0.514628 5.95768L1.18749 1.54668C1.26226 0.923656 1.61115 0.612145 2.23417 0.612145H20.9996C21.6227 0.612145 21.984 0.923656 22.0837 1.54668L22.9061 5.99507C22.9559 6.24427 22.9185 6.44364 22.7939 6.59317C22.6693 6.74269 22.4949 6.81746 22.2706 6.81746H21.822C21.5479 6.81746 21.2613 6.60563 20.9623 6.18197C20.6632 5.7334 20.4015 5.24744 20.1772 4.7241C19.953 4.20076 19.6414 3.72726 19.2427 3.30361C18.844 2.85503 18.4079 2.63074 17.9344 2.63074H13.8598V24.0503C13.8598 24.5985 14.109 25.097 14.6074 25.5455C15.1058 25.9692 15.355 26.2932 15.355 26.5175V26.6296C15.355 26.9785 15.0809 27.1529 14.5327 27.1529H8.70115Z" fill="black"/>
<path d="M34.6888 8.83605C35.7604 8.83605 36.5953 9.1351 37.1934 9.73321C37.8164 10.3313 38.1279 11.0789 38.1279 11.9761C38.1279 13.5461 37.48 14.3311 36.1841 14.3311C35.6358 14.3311 35.2122 14.1816 34.9131 13.8825C34.6141 13.5835 34.4271 13.2471 34.3524 12.8732C34.2776 12.4994 34.1032 12.163 33.829 11.8639C33.5549 11.5649 33.1811 11.4154 32.7076 11.4154C31.8852 11.4154 31.2497 11.8639 30.8012 12.7611C30.3526 13.6583 30.1283 14.7548 30.1283 16.0507V24.0503C30.1283 24.5985 30.4149 25.0845 30.9881 25.5082C31.5612 25.9318 31.8478 26.2558 31.8478 26.4801V26.6296C31.8478 26.9785 31.5862 27.1529 31.0628 27.1529H25.2687C24.7454 27.1529 24.4837 26.9785 24.4837 26.6296V26.4801C24.4837 26.2558 24.7204 25.9318 25.1939 25.5082C25.6674 25.0845 25.9042 24.5985 25.9042 24.0503V13.9947C25.9042 13.4215 25.6301 12.9355 25.0818 12.5368C24.5585 12.1132 24.2968 11.7892 24.2968 11.5649V11.4528C24.2968 11.1786 24.5211 10.917 24.9697 10.6677L28.633 8.98558C29.3557 8.63669 29.7171 8.84851 29.7171 9.62106V12.5368C30.5644 10.0696 32.2216 8.83605 34.6888 8.83605Z" fill="black"/>
<path d="M46.1751 6.10721C45.2531 6.10721 44.5054 5.84554 43.9322 5.3222C43.3591 4.79886 43.0725 4.126 43.0725 3.30361C43.0725 2.48122 43.3591 1.80835 43.9322 1.28501C44.5054 0.76167 45.2531 0.5 46.1751 0.5C47.0723 0.5 47.795 0.76167 48.3432 1.28501C48.9164 1.80835 49.203 2.48122 49.203 3.30361C49.203 4.126 48.9164 4.79886 48.3432 5.3222C47.795 5.84554 47.0723 6.10721 46.1751 6.10721ZM43.4089 27.1529C42.8856 27.1529 42.6239 26.966 42.6239 26.5922V26.4427C42.6239 26.2184 42.8482 25.8944 43.2968 25.4708C43.7703 25.0471 44.007 24.5612 44.007 24.0129V14.219C44.007 13.6458 43.7703 13.11 43.2968 12.6116C42.8482 12.1132 42.6239 11.7892 42.6239 11.6397V11.5275C42.6239 11.3281 42.8482 11.1039 43.2968 10.8546L47.0349 8.98558C47.4586 8.81113 47.7825 8.79867 48.0068 8.9482C48.256 9.0728 48.3806 9.29709 48.3806 9.62106V24.0129C48.3806 24.5612 48.6298 25.0471 49.1283 25.4708C49.6516 25.8944 49.9133 26.2184 49.9133 26.4427V26.5922C49.9133 26.966 49.6391 27.1529 49.0909 27.1529H43.4089Z" fill="black"/>
<path d="M79.6931 0.612145C80.2414 0.612145 80.5155 0.799052 80.5155 1.17287V1.28501C80.5155 1.48438 80.2538 1.80835 79.7305 2.25693C79.2071 2.68058 78.9455 3.16654 78.9455 3.7148V25.882C78.9455 26.7293 78.5467 27.1529 77.7493 27.1529H76.4035C75.9799 27.1529 75.5188 26.804 75.0204 26.1063L59.881 5.54649V23.9755C59.881 24.5238 60.1551 25.0347 60.7034 25.5082C61.2516 25.9567 61.5257 26.2932 61.5257 26.5175V26.6296C61.5257 26.9785 61.2516 27.1529 60.7034 27.1529H56.8531C56.3048 27.1529 56.0307 26.9785 56.0307 26.6296V26.5175C56.0307 26.2932 56.2674 25.9567 56.7409 25.5082C57.2393 25.0347 57.4886 24.5238 57.4886 23.9755V3.75218C57.4886 3.20392 57.2393 2.71796 56.7409 2.29431C56.2674 1.87065 56.0307 1.54668 56.0307 1.32239V1.17287C56.0307 0.799052 56.3048 0.612145 56.8531 0.612145H60.5538C61.1768 0.612145 61.7002 0.911196 62.1238 1.5093L76.5531 21.5831V3.7148C76.5531 3.16654 76.2914 2.68058 75.7681 2.25693C75.2447 1.80835 74.983 1.48438 74.983 1.28501V1.17287C74.983 0.799052 75.2572 0.612145 75.8054 0.612145H79.6931Z" fill="black"/>
<path d="M100.939 21.6579C101.138 21.3837 101.387 21.2841 101.686 21.3588C102.01 21.4336 102.16 21.6579 102.135 22.0317C101.936 23.3525 101.163 24.5985 99.8174 25.7698C98.4717 26.9411 96.7148 27.5268 94.5467 27.5268C92.0047 27.5268 89.8864 26.6545 88.1918 24.9101C86.5221 23.1656 85.6873 20.8729 85.6873 18.0319C85.6873 15.3903 86.547 13.1972 88.2666 11.4528C90.011 9.70829 92.1293 8.83605 94.6214 8.83605C96.8643 8.83605 98.5838 9.39677 99.78 10.5182C101.001 11.6147 101.612 12.8857 101.612 14.3311C101.612 15.627 100.976 16.4992 99.7053 16.9478L90.659 20.2748C91.1325 21.5706 91.8427 22.5799 92.7897 23.3027C93.7367 24.0254 94.8582 24.3867 96.1541 24.3867C97.2755 24.3867 98.2474 24.1375 99.0698 23.6391C99.9171 23.1157 100.54 22.4553 100.939 21.6579ZM93.8738 10.2565C92.7025 10.2565 91.768 10.8173 91.0702 11.9387C90.3724 13.0602 90.0235 14.5305 90.0235 16.3497C90.0235 17.197 90.0983 17.9945 90.2478 18.7421L96.4531 16.0507C97.101 15.7516 97.425 15.2283 97.425 14.4806C97.425 13.5835 97.0761 12.6614 96.3783 11.7144C95.7055 10.7425 94.8706 10.2565 93.8738 10.2565Z" fill="black"/>
<path d="M114.29 27.5268C112.67 27.5268 111.387 27.0159 110.44 25.9941C109.518 24.9474 109.057 23.4397 109.057 21.471V11.0416H106.926C106.502 11.0416 106.291 10.8297 106.291 10.4061V9.88273C106.291 9.43416 106.502 9.20987 106.926 9.20987H108.085C109.032 9.20987 109.792 8.88589 110.365 8.23795C110.963 7.59001 111.337 6.70531 111.487 5.58387C111.561 5.03561 111.811 4.76148 112.234 4.76148H112.795C113.268 4.76148 113.505 5.03561 113.505 5.58387L113.543 9.20987H118.253C118.452 9.20987 118.614 9.27217 118.739 9.39677C118.863 9.52138 118.925 9.68336 118.925 9.88273V10.4061C118.925 10.8297 118.701 11.0416 118.253 11.0416H113.543V21.5083C113.543 22.3806 113.742 23.0659 114.141 23.5643C114.539 24.0378 115.05 24.2746 115.673 24.2746C117.169 24.2746 118.053 23.6266 118.327 22.3307C118.427 22.1314 118.577 22.0068 118.776 21.9569C118.975 21.9071 119.15 21.932 119.299 22.0317C119.474 22.1314 119.561 22.2934 119.561 22.5176C119.561 23.8634 119.075 25.0347 118.103 26.0315C117.156 27.0283 115.885 27.5268 114.29 27.5268Z" fill="black"/>
<path d="M134.516 8.83605C135.588 8.83605 136.423 9.1351 137.021 9.73321C137.644 10.3313 137.955 11.0789 137.955 11.9761C137.955 13.5461 137.307 14.3311 136.011 14.3311C135.463 14.3311 135.039 14.1816 134.74 13.8825C134.441 13.5835 134.254 13.2471 134.18 12.8732C134.105 12.4994 133.93 12.163 133.656 11.8639C133.382 11.5649 133.008 11.4154 132.535 11.4154C131.713 11.4154 131.077 11.8639 130.628 12.7611C130.18 13.6583 129.956 14.7548 129.956 16.0507V24.0503C129.956 24.5985 130.242 25.0845 130.815 25.5082C131.389 25.9318 131.675 26.2558 131.675 26.4801V26.6296C131.675 26.9785 131.413 27.1529 130.89 27.1529H125.096C124.573 27.1529 124.311 26.9785 124.311 26.6296V26.4801C124.311 26.2558 124.548 25.9318 125.021 25.5082C125.495 25.0845 125.732 24.5985 125.732 24.0503V13.9947C125.732 13.4215 125.457 12.9355 124.909 12.5368C124.386 12.1132 124.124 11.7892 124.124 11.5649V11.4528C124.124 11.1786 124.348 10.917 124.797 10.6677L128.46 8.98558C129.183 8.63669 129.544 8.84851 129.544 9.62106V12.5368C130.392 10.0696 132.049 8.83605 134.516 8.83605Z" fill="black"/>
<path d="M158.194 23.7886C158.244 24.3369 158.381 24.773 158.605 25.097C158.854 25.396 159.091 25.5829 159.315 25.6577C159.565 25.7324 159.777 25.8321 159.951 25.9567C160.15 26.0813 160.25 26.2433 160.25 26.4427C160.25 27.0657 159.241 27.3772 157.222 27.3772C156.225 27.3772 155.49 27.2277 155.017 26.9286C154.568 26.6047 154.306 26.0066 154.232 25.1343C153.235 26.7293 151.503 27.5268 149.036 27.5268C146.942 27.5268 145.248 27.0408 143.952 26.0689C142.681 25.072 142.045 23.6765 142.045 21.8822C142.02 20.1128 142.656 18.7421 143.952 17.7702C145.248 16.7734 146.88 16.275 148.849 16.275C150.643 16.275 152.088 16.6986 153.185 17.5459L153.11 16.7983C152.886 14.5056 152.487 12.8359 151.914 11.7892C151.341 10.7425 150.431 10.2192 149.185 10.2192C148.413 10.2192 147.765 10.4559 147.241 10.9294C146.743 11.4029 146.394 11.9262 146.195 12.4994C146.02 13.0477 145.758 13.5586 145.41 14.0321C145.061 14.5056 144.625 14.7423 144.101 14.7423C143.553 14.7423 143.104 14.5928 142.756 14.2937C142.432 13.9698 142.27 13.5461 142.27 13.0228C142.27 11.8266 142.917 10.8297 144.213 10.0323C145.534 9.23479 147.191 8.83605 149.185 8.83605C151.528 8.83605 153.422 9.53384 154.867 10.9294C156.313 12.3001 157.172 14.1941 157.446 16.6114L158.194 23.7886ZM150.269 26.1063C151.291 26.1063 152.113 25.7324 152.736 24.9848C153.384 24.2372 153.683 23.3525 153.633 22.3307L153.521 21.1719C153.447 20.1003 153.085 19.253 152.437 18.63C151.789 18.007 150.967 17.6954 149.97 17.6954C148.923 17.6954 148.076 18.0319 147.428 18.7047C146.78 19.3527 146.456 20.2374 146.456 21.3588C146.456 22.6796 146.805 23.8011 147.503 24.7231C148.226 25.6452 149.148 26.1063 150.269 26.1063Z" fill="black"/>
</svg>
