<svg width="36" height="36" viewBox="0 0 36 36" fill="none" xmlns="http://www.w3.org/2000/svg">
<rect width="35.9982" height="36" rx="5.203" fill="black"/>
<path d="M15.3867 29.4963C14.9328 29.4963 14.7059 29.3452 14.7059 29.0429V28.9458C14.7059 28.7515 14.9112 28.4708 15.3218 28.1038C15.754 27.7152 15.9702 27.2834 15.9702 26.8084V8.25251H12.4368C11.9182 8.25251 11.4643 8.55476 11.0754 9.15926C10.708 9.76375 10.3838 10.3683 10.1029 10.9727C9.82194 11.5772 9.5302 11.8795 9.22765 11.8795H8.83866C8.40645 11.8795 8.22276 11.6312 8.28759 11.1347L8.87107 7.31338C8.9359 6.77365 9.23845 6.50378 9.77872 6.50378H26.0515C26.5918 6.50378 26.9051 6.77365 26.9916 7.31338L27.7047 11.1671C27.7479 11.3829 27.7155 11.5557 27.6075 11.6852C27.4994 11.8147 27.3481 11.8795 27.1536 11.8795H26.7646C26.5269 11.8795 26.2784 11.696 26.0191 11.329C25.7598 10.9404 25.5328 10.5194 25.3383 10.066C25.1439 9.61263 24.8737 9.20243 24.528 8.83542C24.1822 8.44681 23.804 8.25251 23.3934 8.25251H19.8601V26.8084C19.8601 27.2834 20.0762 27.7152 20.5084 28.1038C20.9406 28.4708 21.1567 28.7515 21.1567 28.9458V29.0429C21.1567 29.3452 20.919 29.4963 20.4435 29.4963H15.3867Z" fill="white"/>
</svg>
